<mxfile host="Electron" agent="Mozilla/5.0 (Windows NT 10.0; Win64; x64) AppleWebKit/537.36 (KHTML, like Gecko) draw.io/26.2.2 Chrome/134.0.6998.178 Electron/35.1.2 Safari/537.36" version="26.2.2">
  <diagram name="Pagina-1" id="ixQAQ2JgZzsNw3_sM7Nu">
    <mxGraphModel dx="680" dy="400" grid="1" gridSize="10" guides="1" tooltips="1" connect="1" arrows="1" fold="1" page="1" pageScale="1" pageWidth="827" pageHeight="1169" math="1" shadow="0">
      <root>
        <mxCell id="0" />
        <mxCell id="1" parent="0" />
        <mxCell id="cQ3ANYoLkP0b8G8Ry9qt-5" value="" style="shape=dataStorage;whiteSpace=wrap;html=1;fixedSize=1;rotation=90;size=17.5;strokeColor=#3399FF;fillColor=#3399FF;connectable=0;gradientColor=#99CCFF;gradientDirection=east;" vertex="1" parent="1">
          <mxGeometry x="322.5" y="122.5" width="155" height="400" as="geometry" />
        </mxCell>
        <mxCell id="cQ3ANYoLkP0b8G8Ry9qt-7" value="" style="shape=dataStorage;whiteSpace=wrap;html=1;fixedSize=1;rotation=90;size=17.5;strokeColor=#009900;fillColor=#009900;connectable=0;" vertex="1" parent="1">
          <mxGeometry x="388.13" y="194.38" width="23.75" height="400" as="geometry" />
        </mxCell>
        <mxCell id="cQ3ANYoLkP0b8G8Ry9qt-8" value="" style="endArrow=classic;html=1;rounded=0;strokeColor=#FFFFFF;" edge="1" parent="1">
          <mxGeometry width="50" height="50" relative="1" as="geometry">
            <mxPoint x="399.92" y="270" as="sourcePoint" />
            <mxPoint x="399.92" y="350" as="targetPoint" />
          </mxGeometry>
        </mxCell>
        <mxCell id="cQ3ANYoLkP0b8G8Ry9qt-10" value="$$\mu$$" style="text;html=1;align=center;verticalAlign=middle;resizable=0;points=[];autosize=1;strokeColor=none;fillColor=none;fontColor=#FFFFFF;" vertex="1" parent="1">
          <mxGeometry x="379.07" y="250" width="70" height="30" as="geometry" />
        </mxCell>
        <mxCell id="cQ3ANYoLkP0b8G8Ry9qt-9" value="" style="ellipse;whiteSpace=wrap;html=1;strokeColor=none;" vertex="1" parent="1">
          <mxGeometry x="397.5" y="270" width="5" height="5" as="geometry" />
        </mxCell>
        <mxCell id="cQ3ANYoLkP0b8G8Ry9qt-11" value="" style="endArrow=classic;startArrow=classic;html=1;rounded=0;strokeColor=#FFFFFF;" edge="1" parent="1">
          <mxGeometry width="50" height="50" relative="1" as="geometry">
            <mxPoint x="310" y="384" as="sourcePoint" />
            <mxPoint x="310" y="253" as="targetPoint" />
          </mxGeometry>
        </mxCell>
        <mxCell id="cQ3ANYoLkP0b8G8Ry9qt-12" value="$$\approx 20 \;\mathrm{km}$$" style="text;html=1;align=center;verticalAlign=middle;resizable=0;points=[];autosize=1;strokeColor=none;fillColor=none;fontColor=#FFFFFF;" vertex="1" parent="1">
          <mxGeometry x="180" y="300" width="180" height="30" as="geometry" />
        </mxCell>
        <mxCell id="cQ3ANYoLkP0b8G8Ry9qt-13" value="$$\vec{v}$$" style="text;html=1;align=center;verticalAlign=middle;resizable=0;points=[];autosize=1;strokeColor=none;fillColor=none;fontColor=#FFFFFF;" vertex="1" parent="1">
          <mxGeometry x="369.07" y="290" width="90" height="30" as="geometry" />
        </mxCell>
        <mxCell id="cQ3ANYoLkP0b8G8Ry9qt-14" value="" style="shape=dataStorage;whiteSpace=wrap;html=1;fixedSize=1;rotation=90;size=17.5;strokeColor=#994C00;fillColor=#994C00;connectable=0;" vertex="1" parent="1">
          <mxGeometry x="379.07" y="209.06" width="41.87" height="400" as="geometry" />
        </mxCell>
        <mxCell id="cQ3ANYoLkP0b8G8Ry9qt-15" value="" style="shape=mxgraph.signs.science.laboratory;html=1;pointerEvents=1;fillColor=#FFFFFF;strokeColor=none;verticalLabelPosition=bottom;verticalAlign=top;align=center;" vertex="1" parent="1">
          <mxGeometry x="392" y="370" width="12" height="12" as="geometry" />
        </mxCell>
        <mxCell id="cQ3ANYoLkP0b8G8Ry9qt-16" value="" style="shape=dataStorage;whiteSpace=wrap;html=1;fixedSize=1;rotation=90;size=17.5;strokeColor=#000033;fillColor=#000033;connectable=0;fillStyle=dots;gradientColor=default;gradientDirection=west;" vertex="1" parent="1">
          <mxGeometry x="356.25" y="20" width="87.5" height="400" as="geometry" />
        </mxCell>
      </root>
    </mxGraphModel>
  </diagram>
</mxfile>
